<svg xmlns="http://www.w3.org/2000/svg" viewBox="0 0 512 512" role="img" aria-labelledby="title">
  <title id="title">Salah Times maskable crescent clock icon</title>
  <rect width="512" height="512" fill="#1b806a"/>
  <circle cx="256" cy="256" r="178" fill="#207f6c"/>
  <path d="M275 124c-63 21-108 80-108 151 0 85 69 154 154 154 21 0 41-4 59-12-28 38-72 62-123 62-86 0-156-70-156-156 0-84 67-153 151-156 7-17 15-31 23-43Z" fill="#f6f7f2"/>
  <circle cx="344" cy="344" r="72" fill="#f5b942"/>
  <circle cx="344" cy="344" r="52" fill="#fff9ed"/>
  <path d="M344 316v31l24 17" fill="none" stroke="#1b806a" stroke-width="16" stroke-linecap="round" stroke-linejoin="round"/>
  <path d="M344 297v10M344 381v10M297 344h10M381 344h10" fill="none" stroke="#1b806a" stroke-width="11" stroke-linecap="round"/>
</svg>
